<svg xmlns="http://www.w3.org/2000/svg" width="1328" height="1229.333" viewBox="0 0 996 922"><g fill="#fff"><path d="M25.7 32.7c-.9 13.8-.9 459.8 0 472.5l.6 9.8H614V22H26.3zM612 268.5V513H28.3l-.6-11.3c-.9-14.7-.9-448.3 0-465l.6-12.7H612z"/><path d="M78 122.5V172h99V73H78zm97 0V170H80V75h95z"/><path d="M121 106v10h-19v6.4c0 6.3 0 6.4 3.1 7 1.7.3 6 .6 9.5.6h6.4v19h13v-18.9l9.8-.3 9.7-.3.3-6.8.3-6.7h-18.9l-.7-10-.8-10H121zM401.5 74.8c-5.7 3.5-7.4 8.1-5.1 13.5 3.8 9.2 15.7 10.2 20.1 1.7 2.6-5.1 2-8.8-2.4-13.1-4.4-4.4-7.8-5-12.6-2.1M477.5 74.8c-3.6 2.3-5 4-5.8 7-1.5 6.1 4.5 14.2 10.4 14.2 10.3 0 15.5-11.2 8.7-18.5-4.1-4.5-9-5.4-13.3-2.7M238 75.7c0 1 8.7 10.4 19.2 21l19.3 19.3H260v14.3l7.7-.7 7.7-.7-1.9 2.3c-1.1 1.3-9.4 9.9-18.5 19.1-9.1 9.3-16.7 17-16.9 17.2s-.1 1.1.3 2c1 2.7 4.1.2 22.8-18.3l17.7-17.5.3 7.4.3 7.4h13l.3-7.9.3-7.9 19.3 19.1c10.5 10.6 19.8 19.2 20.4 19.2.7 0 1.2-1 1.2-2.2 0-1.5-5.9-8.1-18.7-21l-18.8-18.9 4 .3c2.2.1 5.7.1 7.8 0l3.7-.2v-13h-15.4l18.7-18.9C325.6 86.8 334 77.6 334 76.7s-.5-1.9-1.1-2.2c-.6-.4-9.6 7.7-20.2 18.1l-19.2 18.9-.3-7.8-.3-7.8-6.7.3-6.7.3v7.7l.1 7.8-19.2-19c-10.6-10.5-19.9-19-20.8-19s-1.6.8-1.6 1.7M438 106v10h-20v13h5.4c2.9 0 7.4.3 10 .6l4.6.7V149h14v-19h6.4c3.5 0 7.8-.3 9.5-.6 3.1-.6 3.1-.7 3.1-7V116h-18.9l-.3-9.8-.3-9.7-6.7-.3-6.8-.3zM399.7 152c-5.3 4.6-5.5 11.4-.6 16.6 8.8 9.4 24.1-3.3 17-14-4.2-6.3-11-7.4-16.4-2.6M477.5 150.8c-4.1 2.5-5.3 4.2-5.5 7.7-.4 5.2-.1 6.3 2.6 9.4 6.7 8 19.4 2.7 19.4-8 0-2.3-1-4.1-3.9-7-4.4-4.4-7.8-5-12.6-2.1M402 220.8c-7.2 3.8-8.6 12.5-2.8 18.3 2.4 2.3 3.8 2.9 7.5 2.9 3.8 0 5-.5 8-3.5 3.3-3.3 3.5-3.9 3-8.1-.9-8.5-8.7-13.3-15.7-9.6M477.8 220.9c-10.6 5.2-6.8 21.1 5.1 21.1 3.6 0 4.9-.6 7.7-3.4s3.4-4.2 3.4-7.5c0-8.1-9.1-13.8-16.2-10.2M78 269v49h99v-98H78zm97 0v47H80v-94h95z"/><path d="m113.6 254.7-14 14.3 14 14.3 13.9 14.3 14.5-14.3 14.5-14.3-14.5-14.3-14.5-14.3zM238.4 221.5c-.8 2 3.2 6.7 18.5 22l13.1 13-6.2 6.2-6.3 6.3 6.3 6.2 6.2 6.3-16 16c-8.8 8.9-16 16.9-16 17.8 0 4 4.4.7 19.5-14.3l16-16 6 6c3.3 3.3 6.3 6 6.6 6 .4 0 3.4-2.7 6.5-6l5.8-6.1 16.1 16.1c8.8 8.8 16.8 16 17.8 16 4 0 .9-4.4-12.8-18-8-8-15-15.3-15.6-16.4-.9-1.6-.2-2.7 4.7-7.7l5.8-5.9-6.2-6.3-6.2-6.2 15.5-15.5c8.5-8.5 15.8-16.3 16.1-17.4.3-1 .1-2.3-.5-2.9-.8-.8-5.8 3.6-17.9 15.6L298.4 253l-5.2-5.3c-2.9-2.9-5.2-5.8-5.2-6.5 0-2.2-1.5-1.2-7.5 4.8-3.3 3.3-6.4 6-6.9 6s-8.2-7.2-17.1-16-16.5-16-16.9-16-.9.7-1.2 1.5M430.1 254.4l-14.4 14.4 14.3 13.8c7.8 7.7 14.6 13.9 15.1 13.9.4 0 7-6.2 14.7-13.7l13.8-13.8-14.5-14.5c-8-8-14.5-14.5-14.6-14.5zM401.4 296.8c-3.9 2.5-6.8 8.3-5.9 12.2.4 1.6 2.2 4.3 4.1 6 4.9 4.3 10 4.2 14.8-.4 3-2.8 3.6-4 3.6-7.5 0-8.4-9.8-14.5-16.6-10.3M477.2 297c-3.9 2.4-6.6 8-5.7 12.1.4 1.5 2.3 4.2 4.2 6 3.2 2.8 4.1 3.1 8.2 2.6 12.1-1.4 13.8-16.6 2.5-21.3-4.4-1.8-5.3-1.8-9.2.6M365.5 349.2c-.3.7-.4 31-.3 67.3l.3 66 76 .3c41.8.2 77.8 0 80-.3 3.4-.5 6.4-2.6 18.5-13.2 31.3-27.5 46-43.6 47.6-52.1 1-5.4-4.1-14.4-14-24.9-6.9-7.4-29.8-28.1-44.5-40.6l-4.5-3.7h-79.3c-62.6 0-79.5.3-79.8 1.2m160.5 2.5c2.9 1.9 22.2 18.8 36.3 31.8 14.4 13.1 23.7 25.6 23.7 31.6 0 7.6-13.1 22.6-41.5 47.7l-20 17.7h-157l-.3-62c-.1-34.1 0-63.5.3-65.3l.6-3.2h77.7c71.1 0 78 .1 80.2 1.7M78 414.9v48.8l6.8.5c3.7.3 25.8.4 49.2.4l42.5-.1.3-49.3.2-49.2H78zm97 .3v47.3l-47.2-.1-47.3-.2-.3-47.1L80 368h95z"/><path d="M126 378.6c-5.2 14.1-9.5 23.5-11.4 24.7-1.2.8-8.1 3.6-15.4 6.2-7.7 2.8-13.1 5.2-12.9 5.9.2.6 6.6 3.2 14.1 5.8 7.6 2.6 14.1 4.9 14.4 5.3.3.3 3.1 6.5 6.3 13.7 3.2 7.3 6.1 13.4 6.6 13.5.4.2 2.7-4.6 5.1-10.5 6.2-15.6 6.7-16.3 14.8-19.1 12.7-4.4 22.4-8.2 22.4-8.9 0-.4-6.6-3-14.7-5.7l-14.7-5-5.9-13.5c-3.2-7.4-6.2-13.9-6.7-14.4-.6-.6-1.4.3-2 2M238 368.7c0 .9 7.4 9.1 16.5 18.3s16.5 16.9 16.5 17.2-6.1 2.7-13.5 5.3c-7.5 2.6-13.4 5.3-13.2 5.8.2.6 6.5 3.1 14.2 5.7l13.8 4.6-17.3 17.7c-12.2 12.5-17 18.2-16.6 19.3.3.9 1 1.4 1.5 1.2s8.6-7.9 18-17.1c16-15.7 17.2-16.6 18-14.5 3.3 8.4 10.3 22 11 21.2.4-.5 2.3-4.7 4.1-9.4s4-9.8 4.8-11.4l1.4-2.8 17.4 17.2c14.8 14.8 17.6 17.1 18.9 16 .8-.7 1.5-1.5 1.5-1.8s-7.7-8.3-17.2-17.8c-11.5-11.7-16.7-17.5-15.7-17.9.8-.3 6.8-2.4 13.3-4.8 6.6-2.4 12.1-4.8 12.3-5.4.2-.5-6-3.2-13.8-5.8l-14.1-4.8 17.1-17.1c15.5-15.5 19.4-20.6 15.9-20.6-.7 0-8.8 7.5-18 16.7-9.6 9.5-17.2 16.3-17.6 15.7-.8-.9-7.3-15.5-9.2-20.7-.5-1.6-1.3-2.6-1.7-2.4-.5.3-3 5.9-5.8 12.6l-5 12-17.1-16.9c-16-16-20.4-19.3-20.4-15.3M636 317.5v26.7l14.3-.4c15.2-.4 16.9-.9 22.4-6.1 4.5-4.2 6.8-11.4 6.8-21.2 0-10.8-3.4-18.2-10.3-22.2-4.4-2.6-5.6-2.8-18.9-3.2l-14.3-.3zm28.8-17.8c5.8 4.4 6.7 6.6 6.7 17.7 0 9.3-.2 10.6-2.5 13.9-3.3 4.9-5.9 5.9-16.7 6.5l-9.3.5v-20c0-11 .3-20.3.8-20.7.4-.5 4.7-.6 9.6-.3 6.6.3 9.5.9 11.4 2.4M687.1 324.6c-.7 3.6-1 6.8-.8 7s2.1-.3 4.1-1.1c3.4-1.5 4-1.5 6.2 0 2.6 1.7 3.1 5.2 1.4 8.6-1.6 2.8-6.4 2.5-8.8-.6-2.5-3.1-3.2-3.1-3.2-.1 0 5.5 8.7 7.5 13.7 3.2 2.2-1.9 2.8-3.3 2.8-6.4 0-5.7-2.6-8.2-8.2-8.2-4.2 0-4.4-.1-4.1-2.8.3-2.6.6-2.7 6.1-3 8.2-.4 7.1-2.6-1.5-3l-6.6-.3zM93 540.6c-5.6 5-5.2 6.6 1 4 1.3-.5 1.5.6 1.2 7.4l-.4 8h5.2v-11.5c0-13.3-.5-13.8-7-7.9M332.2 539.3c-1.2 1.3-2.2 2.9-2.2 3.5 0 1.7 3 1.5 5.1-.4 1-.9 2.5-1.4 3.4-1.1 2 .8 1.9 4.1-.2 5.8-2.3 2-9.3 10.9-9.3 12 0 .5 3.6.9 8 .9 7.3 0 8-.2 8-2 0-1.7-.7-2-4-2-2.2 0-4-.3-4-.6 0-.4 1.6-2.4 3.5-4.5 4.6-5.1 5-9 1.3-12.2-2.8-2.4-7-2.1-9.6.6M574.2 538.6c-1.2.8-2.2 2.1-2.2 2.9 0 2.3 2 2.8 3.9 1.1 2.1-1.9 3.7-2 4.7-.4.4.6-.4 2.1-2.1 3.4l-2.7 2.2 2.8 1.3c2 1 2.9 2.2 2.9 3.9 0 3.1-2.9 3.9-5.5 1.5-2-1.8-4-1.3-4 .9s3.5 4.6 6.8 4.6c6.1 0 9.4-6.9 5.5-11.2-1.3-1.4-1.4-2.1-.5-3 3.1-3.1-.4-8.8-5.3-8.8-1.1 0-3.1.7-4.3 1.6M818.9 541.7c-8.8 11.8-8.9 12.8-1.9 13.8 4 .6 5 1.1 5 2.6 0 2.4 2.8 2.5 3.7.1.3-.9 1.3-2.5 2.1-3.4 1.3-1.6 1.3-1.8-.2-2.4-1.2-.5-1.6-1.9-1.6-5.8 0-6.3-.9-9.6-2.4-9.6-.7 0-2.8 2.1-4.7 4.7m2.7 7.9c-.4 1.5-1.4 2.4-2.6 2.4-2.6 0-2.5-1.4.3-5.1 1.7-2.4 2.3-2.7 2.5-1.4.2.9.1 2.7-.2 4.1M37.3 567.7l-11.3.4-.2 66.9-.3 67h159.4l9.5-8.3c23-19.8 29.7-26 38.8-35.6 9.9-10.4 14.8-18.2 14.8-23.5 0-5.6-6.7-15.5-17.9-26.6-10.6-10.5-35-32.1-41.9-37.2l-3.7-2.6-68-.5c-37.4-.2-73.1-.2-79.2 0m134.2 2 13.8.6 5.3 4.6c2.9 2.5 10.6 9.2 17.1 14.7 24.9 21.3 38.3 36.9 38.3 44.7 0 6.8-11.6 21.7-28.7 37-18.1 16.2-28.5 25.2-31.1 26.9-2.5 1.7-7.1 1.8-80.4 1.8H28V570.1l5.8-.4c10.7-.6 123.8-.7 137.7 0"/><path d="M59.7 586.7c-1.9 1.8.6 5.1 15.4 19.9l16 16.1-6.5 6.1-6.5 6.1 6.5 6.2 6.5 6.3-16.7 16.7c-15.5 15.6-18 18.9-13.8 18.9.9 0 8.9-7.2 17.8-16l16.3-16 6.1 6.3 6.1 6.4 6.3-6.4 6.3-6.3 16 16c8.8 8.8 16.8 16 17.7 16 4.4 0 2.1-3.1-13.1-18.4-8.8-8.9-16.1-16.6-16.1-17.2s2.7-3.6 5.9-6.8l6-5.6-5-4.7c-8.5-8-9.1-6.4 9-24.8 8.9-9 16.1-16.8 16.1-17.4s-1-1.1-2.3-1.1c-1.5 0-6.8 4.6-17.7 15.5-8.5 8.5-15.9 15.5-16.5 15.5s-3.5-2.7-6.4-6.1l-5.4-6.1-6.6 6.6-6.6 6.6L78 602.5c-9.1-9.1-16.7-16.5-17.1-16.5-.3 0-.9.3-1.2.7M267.5 567.8c-.3.3-.5 30.6-.5 67.4V702h159.8l22.9-20.4c36.1-32.2 43.3-42.8 37.3-54.5-3.1-6.3-11.5-16-21.3-25-13.6-12.4-31.7-28.3-35.7-31.3l-3.5-2.6-79.2-.5c-43.6-.2-79.5-.2-79.8.1m162.1 4.7c4.2 3.2 32.6 28.5 40.2 35.9 7.6 7.3 15 17.2 16.9 22.7 1.2 3.6 1.1 4.5-.7 8.6-4 9.1-14.5 20.3-41.3 44.2-7.1 6.3-14.2 12.5-16 13.8l-3.1 2.3H269V570l65.8-.2c87.3-.4 90.9-.3 94.8 2.7"/><path d="M303.1 588.6c-3.9 3.3-4.9 8-2.6 12.8 1 2 2.7 4.3 3.9 5.1 3 2.2 9.8 1.9 12.8-.5 8.7-6.8 4.2-20-6.7-20-3.2 0-5.1.7-7.4 2.6M379.1 588.6c-7.9 6.6-3.1 19.4 7.3 19.4 4.8 0 8-1.9 10.1-6 2.5-4.7 1.9-8.4-1.9-12.4-2.9-3.1-4-3.6-7.9-3.6-3.4 0-5.3.6-7.6 2.6M334 620.5 319.5 635l14 14c7.7 7.7 14.5 13.9 15.2 13.8.7-.2 7.5-6.5 15.1-14l13.8-13.8-14.5-14.5c-8-8-14.5-14.5-14.6-14.5zM304.2 663.6c-5.9 4.1-6.4 11.5-1.3 17.2 2.6 2.7 3.7 3.2 7.7 3.2 4.1 0 5.1-.5 8-3.6 4.8-5 4.8-10.2 0-15-2.8-2.8-4.1-3.4-7.8-3.4-2.4 0-5.4.7-6.6 1.6M379 664.9c-3.3 3.3-4.5 6.9-3.6 10.7.4 1.5 2 3.9 3.6 5.5 2.3 2.4 3.7 2.9 7.5 2.9s5.2-.5 7.5-2.9c5.2-5.1 5.2-11.1 0-16.2-2.3-2.4-3.7-2.9-7.5-2.9s-5.2.5-7.5 2.9M508.6 567.8c-.3.3-.6 30.6-.6 67.4V702h80.3l80.2-.1 5.5-5c3-2.8 11.4-10.1 18.5-16.3 25.4-22 37.3-35.9 38.2-44.8.4-3.7-.1-5.3-3.4-10.7-2.1-3.5-6.3-9.1-9.4-12.5-7.4-8-42.8-39.4-48-42.5l-3.9-2.3-78.5-.3c-43.1-.2-78.6-.1-78.9.3m154.5 2.2c4.8 0 8.4 2.6 27.2 19.3C717.5 613.4 729 627 729 635c0 7.3-14 24-35.3 42.2-7.3 6.2-16 13.9-19.4 17l-6.2 5.8H510V570l24.8-.3c13.6-.2 47.2-.2 74.7 0s51.6.3 53.6.3"/><path d="M540 635v49h99.5l-.1-48.8-.1-48.7-49.6-.3-49.7-.2zm97.5 0v47H542v-94h95.5z"/><path d="M583 618.5v9.5h-19v14h19v19h14v-19h19v-14h-19v-19h-14zM750.8 567.6c-.5.4-.8 30.8-.8 67.6V702h158.7l4.1-3c2.3-1.6 7.2-5.8 10.9-9.2 3.7-3.5 8.8-8.1 11.3-10.2 9.4-8 30.2-29.3 33.2-33.9 4.3-6.7 4.8-12.2 1.5-18.9-3.8-7.6-12-17-24.3-27.8-26.5-23.2-30.1-26.3-33.4-28.6l-3.5-2.3-78.5-.7c-43.2-.3-78.8-.3-79.2.2m159.9 3.9c3.8 2.4 30.7 26 41.6 36.4 4.3 4.2 9.8 10.5 12.3 14.2 8.4 12.2 7 18.4-7.5 34.1-8 8.6-39.6 37.1-45.7 41.3l-3.7 2.5H752V570.1l8.8-.4c4.8-.2 39.8-.3 77.7-.3 67.2.1 69.1.2 72.2 2.1"/><path d="M784.1 587.3c-1.6 2 .4 4.3 17.8 21.9 8 8.1 14.3 14.9 14.1 15.1-.6.4-22.2 8.1-25.7 9.2-2.3.6-3.2 2.5-1.3 2.5.5 0 7.1 2.1 14.5 4.6l13.6 4.7-17.1 17.2c-12.5 12.6-16.9 17.6-16.4 18.8.3 1 1.1 1.7 1.7 1.7s8.7-7.5 18-16.7l16.8-16.8 4.9 10.8c2.8 5.9 5 11.2 5 11.7s.4 1.1.9 1.4 3-4.5 5.6-10.7c2.6-6.1 5.1-11.6 5.5-12.1.5-.5 8.2 6.4 17.8 15.8 9.3 9.1 17.6 16.6 18.5 16.6 4 0 .7-4.4-15.4-20.3-9.3-9.3-16.9-17-16.7-17.2.2-.1 6.5-2.4 14.1-5 7.5-2.6 13.7-5.1 13.7-5.6 0-.4-6.3-2.8-14-5.4s-14-5-14-5.3c0-.4 7.7-8.4 17.2-17.9 13.4-13.4 17-17.5 16-18.5-1.9-1.9-4.9.3-21.2 16.7l-15.4 15.4-5.1-11.6c-4.7-10.6-7.5-14.7-7.5-11.1 0 1.6-7.9 20.9-9.2 22.3-.5.5-7.7-5.9-17.8-16-9.4-9.4-17.2-17.1-17.4-17.3-.2-.1-.8.4-1.5 1.1M333.4 737.3c-2.3 2-2.8 3.4-3.1 8.3-.5 8 2 12.4 7.2 12.4 4.5 0 7.5-2.9 7.5-7.3 0-4.9-3.3-8.1-7.6-7.4-3.7.6-3.9.5-2.4-2.4 1.1-2 4.5-2.6 5.5-.9 1.1 1.7 3.5 1.1 3.5-1 0-4.2-6.5-5.2-10.6-1.7m7.6 13.1c0 2.2-1.8 3.8-3.6 3.4-2.7-.5-3.3-6.5-.7-7 1.8-.5 4.3 1.7 4.3 3.6M815.1 737.5c-1.6 2.1-1.8 3.1-1 5.5.7 2 .7 3.5 0 4.9-2.9 5.3 0 10.1 6.2 10.1 2.7 0 4.1-.7 5.6-2.6 2.5-3.2 2.6-4 .6-7.8-1.1-2-1.2-3.3-.5-4 1.7-1.7 1.1-5.4-1.2-7-3.4-2.4-7.3-2-9.7.9m7.5 2.6c.8 1.4-2.1 4.3-3.5 3.5-.6-.4-1.1-1.6-1.1-2.7 0-2.1 3.4-2.7 4.6-.8m.2 10.8c.4 2.9-1.5 4.3-4 3-1.8-1-2.4-3.9-1.1-5.3 1.5-1.5 4.8-.1 5.1 2.3M90.5 739.7c-.3 2.1-.8 4.9-1.1 6.2-.5 2.1-.3 2.3 2.3 1.7 5.9-1.5 6.8-1.3 7.1 1.7.2 1.6-.2 3.5-.9 4.3-1 1.3-1.5 1.3-3.5-.1-2.9-1.9-5.4-1.9-5.4-.1 0 2.6 3 4.6 7 4.6 5.2 0 8.4-3.9 7.6-9-.6-4.1-2.8-6-6.8-6-4.8 0-3.5-2.8 1.4-3.2 3.1-.2 4.4-.8 4.6-2.1.3-1.5-.5-1.7-5.7-1.7h-6zM571 737.5c0 1.1 1.2 1.5 4.9 1.5h5l-2.9 6.2c-3.8 8.3-4.2 12.2-1.4 12.6 1.8.3 2.2-.3 2.7-3.9.3-2.3 2.2-7.3 4.1-11l3.6-6.9h-8c-6.4 0-8 .3-8 1.5M25.6 777c-.4 7.8-.6 38.2-.5 67.6l.2 53.4H185l9-7.8c40.4-34.8 54-49.8 54-59.7 0-7.5-12.7-23.2-32.4-40.3-5.6-4.8-14-12.1-18.7-16.3-4.8-4.3-9.7-8.3-11-9.1-2-1-17.3-1.4-81-1.6l-78.6-.3zm156.1-11.1c3 .6 5.9 2.3 9.5 5.5 2.9 2.5 9.4 8.1 14.3 12.3 16.3 14 27.4 24.5 31.3 29.7 5.7 7.5 9.2 14 9.2 16.7 0 9.5-16.3 27.4-55.3 60.7l-6.1 5.2H28.3l-.6-34.8c-.3-19.1-.3-48.5 0-65.5l.6-30.7h74.6c41 .1 76.5.5 78.8.9"/><path d="M56 831v49h99v-98H56zm91.3-45.8c-.4.7-10.1 10.4-21.4 21.6l-20.6 20.3-21.1-21.3C72.5 794.2 63 784.5 63 784.3s19.1-.3 42.5-.3c33.8 0 42.4.3 41.8 1.2m-66.7 66.9C69 864 59.2 873.8 58.8 873.8c-.5.1-.8-19.5-.8-43.6v-43.7l21.9 22 21.8 22zm72.2-.3-.3 22-22-21.4-21.9-21.4 21.9-22 22-22 .3 21.4c.1 11.8.1 31.4 0 43.4m-25.6 4.1c11.4 11.5 20.8 21.1 20.8 21.5 0 .3-19.5.6-43.2.6H61.5L83 856.5c11.8-11.8 21.9-21.5 22.4-21.5s10.3 9.4 21.8 20.9M267 830.5V898h159.9l9.8-8.8c29.5-26.1 34.6-30.9 40.8-38 7.6-8.7 11.7-16 11.7-20.7 0-6.9-8.7-18.9-23.5-32.4-13.9-12.7-31.8-28.3-35.7-31.2l-3.5-2.6-79.7-.7-79.8-.6zm156.1-64.6c3.2.1 5.5 1.6 17.5 12.2 31.9 27.8 42.2 38.7 46 48.7 1.7 4.2 1.7 4.2-1.4 10.5-4.8 9.7-19.4 24.5-51.8 52.4l-7.2 6.3H269V766.1l9.8-.3c8.2-.3 133.6-.1 144.3.1"/><path d="M299 784.8c0 .9 6.3 8 14 15.7l14.1 14-.3 7.5-.3 7.5-10.2.3c-13.7.4-13.4 2.2.3 2.2h10.6l-.3 7.9-.4 8-14.3 14.5c-7.9 8-14.1 15-13.7 15.6 1.5 2.4 4.4.3 17.1-12.3 7.4-7.2 14.3-13.5 15.2-13.9s4.7-.7 8.5-.7l6.7-.1v10.5c0 6.3.4 10.5 1 10.5s1-4.2 1-10.6v-10.6l8 .4 8 .3 13.8 13.8c12.9 12.8 16.2 15.2 17.7 12.7.4-.6-5.6-7.5-13.3-15.3l-14-14.2-.3-5.5c-.1-3-.1-6.7-.1-8.3l.2-2.7h10c13.3 0 13.1-1.8-.2-2.2l-10.3-.3v-15.3l14.3-14.6c7.8-8 14.2-15 14.2-15.5 0-.6-1-1.1-2.2-1.1-1.6 0-6.5 4.2-15.8 13.4l-13.5 13.5-8 .2-8 .2-.3-10.1c-.4-13.2-2.2-13.4-2.2-.3 0 11.6.1 11.4-10 10.5l-6.8-.7-13.3-13.3c-12.7-12.7-16.9-15.6-16.9-11.6M508.7 763.6c-.4.4-.7 30.8-.7 67.6V898h160.6l9-8.3c4.9-4.5 12.7-11.4 17.4-15.4 11.3-9.4 27.7-26.5 31.9-33.1 5.1-7.9 5.1-12.2.4-19.9-2.1-3.4-6-8.8-8.7-11.9-6.4-7.4-42.8-39.8-48.6-43.2l-4.5-2.7-78-.3c-43-.2-78.4 0-78.8.4m155.7 2.3c5 1.2 7.5 3 25.7 19.3 31.2 27.7 41.1 40.3 38.5 48.6-2.6 8.1-16.8 24.2-34.4 38.9-6.2 5.2-14.6 12.6-18.7 16.4L668 896H510V766.1l6.3-.4c14.1-.8 144.5-.6 148.1.2"/><path d="M539 831v49h99v-98h-99zm97 0v47h-95v-94h95z"/><path d="M558 831v31h61v-62h-61zm59 0v29l-28.2-.2-28.3-.3-.3-28.8-.2-28.7h57z"/><path d="m576.2 830.7.3 11.8 11.8.3 11.7.3V819h-24.1zM750 830.5V898h158.8l4.9-3.6c2.6-2 7.5-6.2 10.8-9.3 3.3-3.2 9.5-8.8 13.9-12.6 11.8-10.3 25.4-24.3 29.3-30.2 4.9-7.3 5.4-12.6 1.8-19.7-4-7.9-11.8-16.8-23.7-27.2-5.6-5-14.8-13-20.3-17.9-5.5-4.8-11.7-9.9-13.9-11.3l-3.8-2.6-78.9-.3-78.9-.3zm161.6-62.3c4.9 3.5 30.7 26.2 40.7 35.7 4.3 4.2 9.8 10.5 12.3 14.2 8.4 12.2 7 18.4-7.5 34.1-8 8.6-39.6 37.1-45.7 41.3l-3.7 2.5H752V766.1l7.3-.3c3.9-.2 39-.3 77.8-.3h70.6z"/><path d="M785.3 784c-4.6 2.7-6.2 8.4-3.8 13.4 5.7 12.1 24.7 5.8 21.3-7.1-1.9-7.3-10.7-10.5-17.5-6.3M861.4 783.9c-3.6 2.2-5.8 7.5-4.8 11.5.3 1.5 1.9 4 3.4 5.6 2.3 2.5 3.6 3 7.5 3 4 0 5.2-.5 8.1-3.4 4.7-4.7 4.8-10 .3-15.1-2.6-2.9-3.8-3.5-7.3-3.5-2.3 0-5.5.9-7.2 1.9M824.1 805c-2.9 7.1-5.9 13.4-6.5 13.9-.7.6-7.4 3.2-15.1 5.9-7.6 2.7-14 5.3-14.2 5.9-.2.5 4 2.5 9.4 4.3 16.4 5.6 20.3 7.1 20.3 8.1 0 1.4 10.2 24.2 11.5 25.7.9 1 1.7-.4 3.9-6 1.6-4 4.1-10.1 5.7-13.6 3.1-7 3.6-7.3 20.9-13.1 10.3-3.4 12.8-4.6 11.8-5.7-.4-.3-6.9-2.8-14.5-5.3l-13.8-4.8-2.5-4.9c-1.4-2.7-4.3-9.1-6.5-14.2s-4.2-9.2-4.5-9.2-3 5.8-5.9 13M787.1 858.8c-4.3 2.3-7.6 8.2-6.6 11.9.3 1.4 2.1 4.1 4 6 2.7 2.7 4.1 3.3 7.5 3.3s4.8-.6 7.6-3.4c4.7-4.7 4.8-10.2.2-15-4.2-4.4-8.2-5.2-12.7-2.8M860.8 860c-1.4 1-3.1 3.3-3.8 4.9-2.7 6.6 3.6 15.1 11.2 15.1 7.9 0 13.3-9.2 9.7-16.3-3-5.8-12-7.8-17.1-3.7"/></g></svg>