<svg xmlns="http://www.w3.org/2000/svg" width="1328" height="1229.333" viewBox="0 0 996 922"><g fill="#fff"><path d="M25.6 46.7c-.8 31.5-.8 438.5.1 455.5l.6 12.8H614V22H26.3zM612 268.5V513H28.3l-.6-34.3c-.9-47.2-1-395-.1-428l.7-26.7H612z"/><path d="M78 122.5V172h99V73H78zm97 0V170H80V75h95z"/><path d="M122.8 116.3c-3.5 3.3-4.2 6-2.3 9.6 2.9 5.8 8.1 6.7 12.6 2.2 4-4 3.9-8.1-.2-11.5-3.8-3.2-6.9-3.3-10.1-.3M237 122.5V172h99l-.2-49.3-.3-49.2-49.2-.3L237 73zM285 94v18.9l-4.5 4.6-4.6 4.5H239V75h46zm48.5 4.5v23h-38l-4.2-4.5-4.2-4.5-.1-18.1c0-9.9.3-18.4.7-18.8.4-.3 10.8-.5 23.2-.4l22.6.3zm-53.9 28.4c1 1.6 2.6 3.2 3.6 3.4 1.7.5 1.8 2 1.8 20.1V170h-46v-46h38.9zM334 147v23l-23.2-.2-23.3-.3-.3-18.8-.2-18.8 3.7-3.8 3.8-3.8 19.8-.2 19.7-.1zM444 93.5v19.6l-4.7 4.4-4.7 4.5h-19.4c-12.6 0-19.1.3-18.7 1 .4.6 8.3 1 20.4 1h19.8l1.1 2.5c.7 1.4 2.3 3 3.7 3.5l2.5 1v20c0 13.2.3 19.9 1 19.5.6-.4 1-8 1-19.6V132l4-4 4-4h19.4c11.9 0 19.7-.4 20.1-1 .4-.7-6.2-1-19-1h-19.7l-4.4-4.5-4.4-4.6V94c0-11.5-.4-19.1-1-19.5-.7-.4-1 6.2-1 19M281.9 219.4c-.4.4-10.6.7-22.8.6H237l-.2 20.7c0 11.5 0 33.4.1 48.8l.2 28 49.5.3 49.4.2v-98h-17.8c-9.9 0-21.9-.3-26.8-.6-4.9-.4-9.2-.3-9.5 0m-31.9 15c0 .4-1.3 2.4-2.9 4.4s-4.1 5.9-5.5 8.6l-2.6 4.9v-30.2l5.5 5.8c3 3.2 5.5 6.1 5.5 6.5m13.5-9.3c-2.7 1.7-6.4 4.4-8 6l-3.1 2.9-5.9-6-5.9-6h27.9zm21.3 16.6c-.3 18.9-.4 19.8-2.3 20.1-1.4.2-5.9-3.6-15.4-13.2-15.3-15.4-15.1-14.2-4.6-20.5 5.7-3.5 13.4-5.9 19.3-6l3.2-.1zm21.3-15.5c4.1 2 8.7 4.7 10.4 6.1l3 2.5-13.5 13.6c-14.8 15-17.4 16.4-18.6 10-.3-1.9-.4-10.6 0-19.2.3-8.6.6-16.1.6-16.6 0-2 11 .2 18.1 3.6m24.9-3.7c0 .9-9.6 10.5-10.5 10.5-.5 0-2-1.1-3.5-2.5-1.4-1.3-5-3.8-8-5.4l-5.5-3.1h13.8c7.5 0 13.7.2 13.7.5m2.8 23.2-.3 7.8-2.8-5.5c-1.6-3-4.2-7.2-5.9-9.3l-3-3.9 5.8-5.9 5.9-6 .3 7.6c.2 4.1.2 11 0 15.2m-68 3.7c7.3 7.4 13.2 14 13.2 14.8 0 3.4-2.2 3.8-21.3 3.8h-19l.7-6.1c.4-3.4 1.8-8.5 3.1-11.5 2.6-5.9 8.1-14.4 9.4-14.4.4 0 6.7 6 13.9 13.4m62.9-.6c2.6 5.2 3.8 9.1 4.1 13.3l.4 5.9h-19.6c-10.8 0-19.6-.2-19.6-.4s-.3-1.2-.6-2.1c-.5-1.1 3.3-5.5 13.2-15.6l13.9-14 2.3 2.8c1.2 1.5 3.9 6.1 5.9 10.1M279 271.9c.9 1.7-.8 3.8-13.1 16.1-7.7 7.8-14.2 14-14.3 13.8-6.7-8.8-11.3-18.6-12.2-26.1l-.7-5.7h19.6c18.4 0 19.7.1 20.7 1.9m54 2.6c0 5.8-3.1 13.9-8.2 21.6l-4.1 6.1-13.4-13.4c-13-12.9-15.1-15.7-13.8-17.8.4-.6 8.1-1 20.1-1H333zm-48 22.8v18.9l-6.2-.7c-7.3-.9-11-2.3-19.5-7.7l-6.5-4.1 14.3-14.3c18.5-18.5 17.9-18.8 17.9 7.9m21.5-7.3c7.7 7.7 12.6 13.4 12 13.8s-3.2 2.2-5.7 4c-6.4 4.4-12.5 6.9-19.1 7.7-5.4.7-5.6.6-6.2-1.7-.4-1.4-.5-9.9-.3-19 .3-17.4 1.2-20.8 4.7-18.8.9.5 7.5 6.8 14.6 14m27.5 9.7v15.8l-6.1-6.1-6.1-6.1 4.1-5.4c2.3-3 4.8-7.3 5.7-9.7.9-2.3 1.8-4.2 2-4.2s.4 7.1.4 15.7m-86.6-.7 3.2 4.5-5.8 5.5-5.8 5.5v-30l2.6 5c1.5 2.8 4.1 7 5.8 9.5m84.6 16.7c0 .2-6.6.3-14.7.3l-14.8-.1 4-2c2.2-1 6.3-3.6 9-5.8l5-3.8 5.8 5.5c3.1 3.1 5.7 5.8 5.7 5.9m-76.6-8.2c1.8 1.4 5.7 3.9 8.7 5.5l5.4 3h-28.9l5.4-5.5c3-3 5.6-5.5 5.8-5.5s1.8 1.1 3.6 2.5M78 269v49h99v-98H78zm42.1-2.7c-.8 1.9-.7 3.5.1 5.3 1.1 2.4.4 3.3-19.5 23.2L80 315.5v-93.1l20.5 20.6c19.7 19.8 20.5 20.8 19.6 23.3m33.3-24.2-20.1 20.1-3.6-1.3c-3.1-1.1-3.9-1.1-5.4.2-1.7 1.4-3.4-.1-21.8-18.8l-20-20.3h91zm21.6 26.8v45.8l-20.5-20.5c-13.9-13.9-20.2-20.9-19.5-21.6 1.3-1.3 1.3-5.6 0-7.6-.7-1.2 3.4-5.9 19.3-21.8 11.1-11.1 20.3-20.2 20.4-20.2.2 0 .3 20.6.3 45.9m-46.6 46.9c-24.6.1-45 0-45.3-.3s8.3-9.4 19.2-20.3l19.7-19.7 3.2 1.3c2.6 1 3.6.9 5.3-.2 1.9-1.4 3.2-.3 22.3 18.7l20.2 20.2zM431 221.5c-7.5 2.1-13.4 5.8-20.8 12.9-16.3 15.6-19.4 41.6-7.1 60.7 9.1 14.2 24.8 22.9 41.4 22.9 27.7 0 49.6-22 49.5-49.8-.1-18.4-11.5-35.9-28.7-43.9-7.1-3.3-8.7-3.7-18.3-4-7.3-.2-12.2.2-16 1.2m13 19v18.4l-4.5 4.6-4.6 4.5h-38l.6-3.8c2.9-17.5 11.6-30.1 25.5-37.2 5.6-2.9 12.4-4.8 17.3-4.9l3.7-.1zm14.9-16.6c8.3 2.6 13.7 6 19.8 12.3 5.9 6.3 10.5 14.9 12.2 22.6 2.1 10 3.8 9.2-18.4 9.2H453l-1-2.5c-.5-1.4-2.1-3-3.5-3.7l-2.5-1.1V222h3.4c1.9 0 6.1.8 9.5 1.9m-21.1 48.5c.6 1.4 2.3 3.2 3.7 4.2l2.5 1.6v38.1l-5.5-.7c-20.5-2.4-38.5-20.1-40.2-39.7l-.6-5.9h39zm53.8 2.7c-.9 6.6-4.2 15.3-7.7 20.5-6.7 9.9-21 18.7-32.1 20l-5.8.7V277l2.5-1c1.4-.5 3-2.1 3.5-3.5l1-2.5h39.3zM365.5 349.2c-.3.7-.4 31-.3 67.3l.3 66h159.1l3.5-2.9c9.5-8 28.7-25.4 39.2-35.6 12.8-12.4 19-20.7 20.1-26.6 1.1-5.4-3.9-14.8-12.8-24.2-8-8.5-43.5-40.5-48.1-43.3-2.9-1.8-6.6-1.9-81.8-1.9-62.1 0-78.9.3-79.2 1.2m160.5 2.5c3.1 2.1 23.1 19.6 36.9 32.3 16.1 14.8 23.9 26 22.7 32.8-1.2 7.9-16.1 24.3-44.6 49.3l-16.4 14.4H367.5l-.3-61c-.2-33.6 0-62.9.3-65.3l.6-4.2h77.7c71.4 0 78 .1 80.2 1.7M274.5 367.4c-6.8 1.7-13.5 5.1-18.2 9.1l-4 3.4-4.4-4.5c-4.7-4.8-9.9-9-9.9-7.9 0 .4 2.8 3.5 6.1 7l6.1 6.4-2.9 3.8c-6.6 8.4-10.3 19-10.3 29.8 0 11.8 3.2 21.4 10.3 30.7l3.5 4.6-6.4 6.3c-3.5 3.5-6.4 6.8-6.4 7.3 0 .6 3.1-2 6.9-5.8l6.9-6.8 5.1 4c11.2 8.9 27.2 11.7 43.6 7.7 4.6-1.2 10.5-4.4 15.3-8.3l4.4-3.5 6.9 6.9c3.7 3.7 7.2 6.5 7.5 6.1.4-.4-2.2-3.7-5.9-7.3l-6.6-6.6 4.4-6.4c12.3-17.9 11.6-41.7-1.6-58.5l-2.8-3.6 5.8-6.4c3.3-3.5 5.7-6.6 5.5-6.8-.3-.3-3.3 2.3-6.7 5.6l-6.2 6.2-3.5-3c-10.7-9.1-28.3-13-42.5-9.5m27 3c5 1.8 17.5 9.2 17.5 10.5 0 .3-6 6.6-13.4 14l-13.3 13.3-3.9-.6c-2.2-.3-4.5-.2-5.3.3-1.9 1.2-4-.6-18.3-15.4l-11.2-11.7 2.9-2.4c4.6-3.6 11.7-7.2 17.6-8.9 6.8-1.9 20.6-1.4 27.4.9m-22.5 41c-1.3 1.3-1.3 5.6 0 7.6.7 1.2-2.1 4.5-12.8 15.2-7.5 7.6-14 13.8-14.3 13.8-1.1 0-7.9-10.9-10.1-16.3-1.8-4.2-2.2-7.3-2.2-16.2-.1-12.9 1.4-18.3 7.6-27.6l4.1-6.1 14.3 14.3c9.4 9.4 14 14.7 13.4 15.3m49-17.9c1.7 3.3 3.8 9.5 4.7 13.7 1.5 7.1 1.5 8.3 0 15.9-1.7 8.9-5.1 16.6-9.4 21.7l-2.8 3.3-14.1-14c-10.9-10.9-13.8-14.4-13.1-15.6.4-.9.7-3.1.5-4.9-.3-3.1.7-4.4 13.1-17.1l13.3-13.6 2.5 2.2c1.3 1.3 3.7 5 5.3 8.4m-44.5 29.7c1.9.9 3.1.8 5.2-.1 2.6-1.2 3-.8 16.5 12.6l13.9 13.8-2.8 2.3c-9.7 7.9-25.4 12.2-37.1 10.2-9.5-1.6-25.2-9.2-25.2-12.2 0-.7 25.5-27.1 26.7-27.7.1-.1 1.4.4 2.8 1.1M87.5 376.2c4.9 5.1 14.3 14.8 20.9 21.5l11.9 12.2.1 5.8.1 5.8-20.3 20.4c-11.2 11.2-20 20.6-19.7 20.9s9.9-8.8 21.4-20.2c19.4-19.4 21-20.7 23.1-19.6 1.7.9 2.9.9 5.3-.1l3.1-1.3 9 9.6c12.1 12.7 33.6 33.3 33.6 32.3 0-.5-9.5-10.5-21.2-22.2-16.6-16.6-21-21.5-20-22.5 1.5-1.5 1.6-6.4.1-7.4-.6-.3 7.7-9.5 20-21.9 11.6-11.6 21.1-21.6 21.1-22.1s-4.6 3.7-10.2 9.3c-33 32.7-32.5 32.2-35.8 31-2.4-.9-3.5-.9-5.2.2-2 1.2-3.4 0-23.2-19.8C90 376.5 80.1 367 79.6 367s3 4.2 7.9 9.2M636 317.5V344h40v-6l-16.2-.2-16.3-.3-.3-8.7-.3-8.7 14.8-.3 14.8-.3v-3c0-2.9-.2-3-4.5-3-2.5-.1-9.1-.2-14.8-.3l-10.3-.2.3-7.8.3-7.7 15.8-.3 15.8-.3-.3-2.7-.3-2.7-19.2-.3-19.3-.2zM688.4 318.2c-5.4 1.4-6.9 4.1-6.9 12.3 0 9.4 2.1 12.8 8.3 13.3 5.6.4 8.2-2.2 8.2-8.3 0-7.1-5.2-10.6-11.2-7.4-2.9 1.5-3.4.4-1.5-3.5 2.2-4.8 5.2-5.5 8.7-2.1 3.2 3.1 5.1 1.8 2.7-1.9-1.9-2.8-4.2-3.5-8.3-2.4m6 15c1.3 3.8-.6 7.8-3.8 7.8-3.3 0-5.6-2.5-5.6-6 0-5.4 7.6-6.9 9.4-1.8M823.2 536.8c-1.9.6-11.2 14.2-11.2 16.4 0 1.2.7 1.8 2.3 1.8 3.9 0 6.6 1.2 7.2 3.1.8 2.4 3.4 2.5 4.2.1.3-.9 1.3-2.5 2.1-3.4 1.3-1.6 1.3-1.8-.2-2.4-1.2-.5-1.6-2-1.7-6.3-.1-6.9-1-9.9-2.7-9.3m-1.6 11.7c-.5 2.6-1.2 3.5-2.6 3.5-2.6 0-2.5-1.4.2-5 2.6-3.6 3.3-3.2 2.4 1.5M92.7 540.9c-4.4 4.1-4.5 6.2-.2 4.3L95 544v8c0 7.9 0 8 2.5 8h2.5v-11.5c0-13.4-.5-13.9-7.3-7.6M332.2 539c-1.2 1.2-2.2 2.7-2.2 3.5 0 2 2.9 1.9 5.1-.1 1-.9 2.5-1.4 3.4-1.1 2 .8 1.9 4.1-.2 5.8-2.3 2-9.3 10.9-9.3 12 0 .5 3.6.9 8 .9 7.3 0 8-.2 8-2 0-1.7-.7-2-4.7-2h-4.7l3.6-3.8c4.6-4.8 6.1-7.7 5.2-10.5-1.5-4.9-8.3-6.3-12.2-2.7M574.2 538.6c-2.4 1.7-3 5.4-.8 5.4.7 0 1.9-.7 2.6-1.5 1.6-1.9 5-1.9 5 0 0 .8-.9 2-2 2.7-2.6 1.7-2.5 3.1.3 4.3 1.4.7 2.2 1.9 2.2 3.5 0 3.1-2.9 3.9-5.5 1.5-2.1-1.9-4-1.3-4 1.2 0 4.2 8.5 5.8 12 2.3 2.4-2.4 2.6-7.2.5-9-1.1-.9-1.3-1.6-.5-2.4 3.1-3.1-.5-9.6-5.5-9.6-1.1 0-3.1.7-4.3 1.6M37.4 567.7l-11.1.4-.7 16.1c-.4 8.9-.6 39.1-.5 67l.3 50.8h159.5l9-7.8c40.1-34.4 54.1-49.8 54.1-59.6 0-3.3-4.6-12.1-9.6-18.3-5-6.1-42.6-40.2-50.9-46-3-2.2-3.6-2.2-71-2.6-37.4-.2-73-.2-79.1 0m126.7 2.3h20.8l5.5 4.7c3 2.7 9.7 8.4 14.8 12.8 16.4 14.1 27.8 24.9 31.7 30 5.6 7.4 9.1 13.9 9.1 16.6 0 7.5-12.6 23.1-32.5 40.5-5.5 4.8-12.7 11.2-16 14.2s-7.7 6.8-9.9 8.4l-3.9 2.8H28.3l-.6-18.8c-.9-24-.9-66.4 0-91.5l.6-19.6 8.1-.4c4.5-.3 30.3-.3 57.5-.1s58.8.4 70.2.4"/><path d="M58 635v49h98v-98H58zm96 0v47H60v-94h94z"/><path d="M102.9 628.3c-5.9 3.9-4.8 11.8 1.9 14.6 2.6 1.1 3.4 1 5.7-.5 6-3.9 6.4-9.9.9-14.3-3.4-2.7-4.3-2.6-8.5.2M267.4 567.9c-.2.2-.4 30.5-.4 67.3V702h159.7l10.5-9.3c28.8-25.3 33.3-29.4 39.4-36.5 8.5-9.9 12.4-16.6 12.4-21.5 0-10.1-11-22.6-48.3-54.8L427 568l-9.8-.1c-51.3-.3-149.5-.3-149.8 0m155.9 1.8c3 .4 6.6 3 16.5 11.6 31.1 27.1 44.1 40.9 47.2 50.1 2.8 8.7-7.4 21.3-42.3 52.5-7.1 6.3-14.2 12.5-16 13.8l-3.1 2.3H269V570.1l10.3-.4c20-.6 140.3-.7 144 0"/><path d="M299 635v49h99v-98h-99zm49-28.1c0 15.3-.3 19.1-1.5 20.1-.8.6-1.9 1-2.4.8-1.2-.4-28.7-27.2-35.5-34.5l-4.8-5.3H348zm26.5 1.1c-14.5 14.5-20.6 20-22 19.8-1.9-.3-2-1.2-2.3-20.1L350 588h44.5zM342 630.7c0 2.7-4.3 3.3-22.4 3.3H301v-45.5l20.5 20.5c11.3 11.3 20.5 21 20.5 21.7m54-19.2V634l-19.7-.2c-19.5-.3-19.8-.3-19.8-2.4q0-2.25 19.5-22.2c10.7-11.1 19.6-20.1 19.8-20.2.1 0 .2 10.1.2 22.5m-54.6 26.7c.9 1.5-1.8 4.7-18.9 22.1-11 11.2-20.4 20.5-20.8 20.5-.4.1-.7-9.9-.7-22.3l.1-22.5 19.6.2c17.3.3 19.7.5 20.7 2m54.6 20.2v22.4l-19.7-20c-13-13.1-19.9-20.8-20.1-22.4l-.3-2.4H396zm-49-14.5c.6 1.2 1 9.5 1 20V682h-22c-12.1 0-22-.2-22-.4 0-1 39.6-39.6 40.7-39.6.7 0 1.7.9 2.3 1.9m27.5 18.1 20 20H350v-40h2.3c1.6 0 8 5.8 22.2 20M508.4 567.9c-.2.2-.4 30.5-.4 67.3V702h160.6l8.4-7.8c4.7-4.2 12.8-11.4 18.1-15.9 21.1-18 35.9-36.2 35.9-44 0-3.5-5.3-12.6-11.8-20.2-5.8-6.8-43.8-40.7-49.3-44l-4.1-2.4-78.5-.1c-43.1-.1-78.7.1-78.9.3m160.1 3.3c1.7.9 5.7 4.1 9.1 7 44.4 38.6 54.5 50.9 50.3 61-2 4.9-12 17.6-19 24.4-3.5 3.4-11.6 10.5-17.9 15.9s-14.1 12.3-17.2 15.2l-5.7 5.3H510V570l27.8-.3c15.2-.1 50.2-.3 77.7-.2 45.2 0 50.3.2 53 1.7"/><path d="M576 587.8c-12 4-21.7 11.3-27.9 21.1-12.3 19.1-9.1 44.5 7.8 61.1 10 9.9 20 14 34.2 14 23.6 0 43.4-16.5 48.3-40.3 4.4-21-6.9-42.9-27-52.9-8.1-4-8.9-4.2-19.2-4.5-8.4-.2-11.9.1-16.2 1.5m13 19.5v19.4l-2.4 1.1c-1.4.6-3.2 2.3-4.2 3.7l-1.6 2.5h-18.9c-10.3 0-19-.3-19.2-.8-1-1.7 2.7-15.1 5.6-20.7 7-13.3 23.3-24 37.5-24.4l3.2-.1zm19.6-15.9c16 7.3 26.1 20.7 28 37.1l.7 5.5h-37.2l-4.6-4.4-4.5-4.4v-37.5l6.2.7c3.4.3 8.5 1.7 11.4 3m-26.6 46c0 .8 1.6 2.7 3.5 4.2l3.5 2.6v38.1l-5.5-.7c-12.9-1.5-24.8-8.8-32-19.6-4.8-7.2-8.5-17-8.5-22.5V636h19.5c16.4 0 19.5.2 19.5 1.4m55 2c0 5.5-3.7 16-7.9 22.2-6.7 10-21.2 18.9-32.5 20.1l-5.6.6v-38.1l2.5-1.6c1.4-1 3.1-2.8 3.7-4.2l1.1-2.4H637zM775.8 567.7l-25.8.3v134h79.3c76.1 0 79.3-.1 82.1-1.9 1.6-1.1 8.1-6.6 14.4-12.3 37.5-33.5 46.2-43.5 46.2-53 0-4.1-3.8-11.5-9.5-18.9-4.2-5.3-44.4-41.5-50.5-45.4-3.5-2.3-3.6-2.3-57-2.7-29.4-.2-65.1-.2-79.2-.1m135.2 4c3.5 2.2 31.7 27.1 42.2 37.2 9.6 9.2 15.9 18.5 16.5 24.5.7 5.9-2.8 12.2-12.6 22.8-8 8.6-39.6 37.1-45.7 41.3l-3.7 2.5H752V570l36.3-.2c19.9-.2 55-.2 78-.1 38.5.2 42 .3 44.7 2"/><path d="m803.8 585.8-21.8.2v98h99v-98.5h-27.8c-15.2 0-37.5.1-49.4.3m-8.7 14c.5.2-.9 2.6-2.9 5.5-2 2.8-4.7 7.1-5.9 9.6l-2.2 4.6-.1-15.8V588l5.2 5.7c2.8 3.2 5.5 5.9 5.9 6.1m14.3-9c-2.8 1.6-6.7 4.1-8.8 5.7l-3.7 2.8-5.7-5.6-5.7-5.7h29zm20.4 16.9c-.3 18.9-.4 19.8-2.3 20.1-1.4.2-5.9-3.6-15.4-13.2-15-15.1-14.7-14.1-6-19.7 5.8-3.7 14.8-6.8 20.2-6.8l3.7-.1zm21.5-15.7c3.4 1.6 7.8 4.3 9.7 5.9l3.5 2.9-13.7 13.6c-7.6 7.5-14.5 13.6-15.3 13.6-2.8 0-3.5-4.8-3.5-22.7v-17.6l6.5.6c4.2.4 8.7 1.7 12.8 3.7m24.7-3.1c0 .5-2.3 3-5.2 5.5l-5.1 4.5-3.2-2.5c-1.8-1.3-5.6-3.8-8.6-5.4l-5.4-3h13.8c7.7 0 13.7.4 13.7.9m2.8 22.8-.3 7.8-2.1-4.5c-1.2-2.5-3.8-6.7-5.8-9.4l-3.8-4.9 5.9-5.9 5.8-5.9.3 7.6c.2 4.1.2 11 0 15.2m-68.2 3.8c9.9 10 13.4 14.2 13.4 16v2.5h-40.3l.7-5.1c.9-6.9 3.6-13.8 8.3-20.9 2.1-3.3 4-6 4.2-6s6.4 6.1 13.7 13.5m63.7-.2c2.9 6 3.7 8.6 3.7 13.1v5.6h-19c-18.3 0-19-.1-20.1-2.1-1-2 .1-3.4 12.7-16.1l13.9-13.9 2.5 3c1.4 1.6 4.2 6.3 6.3 10.4m-49.9 22.3c.4.9.1 2.4-.6 3.3-2.2 2.8-26.3 26.1-27 26.1-2.6 0-11.4-18.1-12.2-25.3l-.7-5.7h19.9c17.5 0 20.1.2 20.6 1.6m53.4 4.6c-.4 7-4.6 17-9.4 22.6l-2.9 3.3-13.9-13.9c-12.6-12.7-13.7-14.1-12.7-16.1 1.1-2 1.8-2.1 20.3-2.1h19zM830 662.7v19.5l-5.7-.7c-6.5-.7-14.5-4-21.5-8.8l-4.8-3.2 14.2-14.2c18.5-18.6 17.8-18.9 17.8 7.4m25.4-2.4c10 10 18.7 19 19.5 20 1.3 1.6.5 1.7-12.5 1.6-11.2 0-13.5-.3-12-1.2 1-.7 4.5-2.9 7.7-4.9 3.3-2.1 5.9-4.2 5.9-4.8s-1.7 0-3.7 1.3c-10.3 6.4-15.3 8.5-21.7 9.2l-6.6.7v-19.4c0-10.7.3-19.8.7-20.1 2.2-2.3 5.8.4 22.7 17.6m-63.6 3.5 4 5.8-5.9 5.7-5.9 5.7.1-15.8v-15.7l1.9 4.2c1.1 2.4 3.7 6.9 5.8 10.1m87.2 2.4v15.2l-5.9-5.8-6-5.9 4.5-6.3c2.4-3.4 4.9-7.6 5.5-9.3s1.3-3.1 1.5-3.1.4 6.8.4 15.2m-78.2 7.5c2 1.5 5.8 3.9 8.6 5.5l5.1 2.8h-28.9l5.4-5.5c3-3 5.6-5.5 5.9-5.5.2 0 2 1.2 3.9 2.7M332.8 738c-2.9 2.9-3 3.4-2.6 9.5.5 7.7 2.5 10.5 7.5 10.5 4.4 0 7.3-3 7.3-7.5 0-4.9-3.1-7.9-7.6-7.2-3.7.6-3.9.5-2.4-2.4 1.3-2.3 3.9-2.5 5.5-.2 1.4 1.9 3.5.9 3.5-1.7 0-2.2-2.8-4-6-4-1.2 0-3.5 1.4-5.2 3m8 13.5c-.2 1.4-1.1 2-2.8 2-3.2 0-4.1-4.2-1.4-6.2 1.6-1.2 2.1-1.1 3.2.4.7 1 1.1 2.7 1 3.8M816.8 736.1c-3 1.7-3.9 4.5-2.6 7.4.9 1.9.9 2.8 0 3.7-1.8 1.8-1.4 7.3.6 9.1 3 2.7 8.7 2.2 11.1-.9 2.5-3.2 2.6-5.2.5-8.3-1.2-1.7-1.3-2.6-.5-3.4 4.4-4.4-3.4-11-9.1-7.6m5.8 4c.8 1.4-2.1 4.3-3.5 3.5-.6-.4-1.1-1.6-1.1-2.7 0-2.1 3.4-2.7 4.6-.8m.4 9.8c1.4 2.8-1.3 5.5-4.1 4.1-2-1.1-2.3-1.9-1.3-4.4.8-2.2 4.1-2 5.4.3M90.5 739.7c-.3 2.1-.8 4.9-1.1 6.2-.5 2.1-.3 2.3 2.3 1.7 6.1-1.5 6.8-1.3 7.1 2.2.4 3.7-1.9 5.3-4.9 3.4-2.6-1.6-4.9-1.5-4.9.2 0 4.3 7.9 6.2 11.9 2.8 5.1-4.2 2.4-13.2-4-13.2-4.8 0-3.7-2.8 1.3-3.2 3.1-.2 4.4-.8 4.6-2.1.3-1.5-.5-1.7-5.7-1.7h-6zM571 737.5c0 1.1 1.2 1.5 4.9 1.5h5l-3 6.4c-3.8 8-4.2 12-1.4 12.4 1.8.2 2.2-.6 3.2-5.3.7-3.1 2.6-7.9 4.3-10.6 1.6-2.7 3-5.1 3-5.4s-3.6-.5-8-.5c-6.4 0-8 .3-8 1.5M50.9 763.7l-24.6.3-.6 13.7c-.9 17.5-.9 101.2 0 112l.6 8.3h79.6l79.6-.1 8.2-7.2c24.4-21.6 31.6-28.2 39.5-36.6 10.1-10.5 13.6-16 14.4-22.2.5-3.8 0-5.2-3.3-10.9-4.6-7.7-14-17.9-27.6-29.7-5.5-4.9-14.2-12.5-19.3-17s-10.3-8.8-11.6-9.5c-1.8-1-13.6-1.3-56.3-1.3-29.7-.1-65.1.1-78.6.2m130.8 2.2c3 .6 5.9 2.3 9.5 5.5 2.9 2.5 9.4 8.1 14.3 12.3 16 13.7 27.5 24.7 31.4 29.8 5.7 7.6 9.1 13.9 9.1 16.9 0 9.3-14.3 24.9-55.3 60.3l-6.1 5.3H28.3l-.7-12.9c-.8-15.2-.7-77 .1-100.7l.6-16.4 26.6-.3c63.4-.6 122.9-.6 126.8.2"/><path d="M90.8 783.9C66.3 792 51.7 817 57.4 841.3c2.2 9.5 5.7 15.7 13.2 23.7 10.8 11.4 22 15.7 38.6 14.8 11.6-.7 20.7-4.9 30.5-14.1 12.3-11.7 17.5-27.8 14.2-43.9-3.1-15-13.9-28.8-27.6-35.5-7.3-3.5-8.5-3.7-18.8-4-8.7-.2-12.2.1-16.7 1.6m29.4 2.1c21.4 6.6 35.8 30.1 32 52.3-2.4 13.8-8.7 23.6-20.1 31.3-28 18.9-64.1 4.9-72.6-28.1-3.9-15.1.2-30.7 11.1-42.5 5.6-6 15.9-12.2 23-13.9s19.7-1.2 26.6.9"/><path d="M101.7 823.6c-5.1 2.8-5.7 8.5-1.4 13.1 2.7 3 6.8 2.9 10.6-.3 4.1-3.4 4-6.7-.3-11-3.8-3.8-4.8-4-8.9-1.8M272.8 763.7l-5.8.4V898h159.7l11.4-10.1c6.3-5.6 15.9-14.1 21.4-18.9 16.1-14.2 27.1-27.8 29.6-36.4 1.2-4-2.1-10.9-9-19.6-5.3-6.6-26.9-26.8-44-41.1l-9.4-7.9h-32.6c-17.9 0-51.3-.2-74.1-.4s-44.1-.2-47.2.1m150.3 2.2c3.2.1 5.4 1.6 16.5 11.3 31.4 27.3 43.2 39.7 47 49.6 1.7 4.2 1.7 4.2-1.4 10.5-1.8 3.5-6.4 9.7-10.8 14.5-6.5 7.1-34.1 32.4-45.2 41.5l-3.4 2.7H269V766l31.8-.2c26-.3 108.3-.1 122.3.1"/><path d="M298 782.7c0 .4 9.6 10.3 21.2 22 19.2 19.2 21.2 21.5 20.1 23.2-.9 1.5-1 2.8-.1 5.1 1.1 3.2 1.1 3.2-12.8 17.1L312.5 864l-4.3-6.3c-6.3-9.4-8.5-17-7.9-28.7.5-12 2.7-18.1 10.3-28.8 1-1.3 1.2-2.2.5-2.2-1.7 0-7.8 8.9-10.2 15-1.4 3.7-2.3 8.6-2.6 15.1-.7 12.1 1.6 20.7 8.2 30.5l4.6 6.8-6.8 6.8c-3.7 3.7-6.4 7-6.1 7.3.3.4 3.8-2.4 7.7-6l7.1-6.7 3.1 2.7c16.4 13.8 44.7 13.9 61.4.1 4.4-3.6 2.3-4.3-2.2-.8-2.1 1.7-6.7 4.3-10.3 5.8-5.8 2.5-7.7 2.8-17.5 2.9-12.8 0-18-1.4-27.6-7.6l-6.2-4.1 14.3-14.3c13.8-13.8 14.4-14.3 16.5-12.9 1.8 1.2 2.7 1.2 4.9.2 2.7-1.1 3.1-.7 24.1 20.2 11.8 11.8 21.7 21.1 22 20.8.4-.3-2.4-3.8-6-7.7l-6.7-7.1 2.7-3.1c13.8-16.5 13.8-45.3-.1-61.8l-2.7-3.2 5.5-5.7c6.4-6.7 8.4-9.2 7.2-9.2-.4 0-10.4 9.5-22.1 21.2-20.8 20.8-21.3 21.1-23.8 19.8-2.1-1.1-2.9-1.1-5 0-2.5 1.4-2.9 1.1-16.5-12.6l-13.9-13.9 4.4-3.4c2.5-1.8 7.3-4.5 10.7-6 5.6-2.3 7.6-2.6 18.3-2.6 13.3 0 17.7 1.4 27.2 8.1 2.6 1.8 4.9 3.2 5.1 2.9 1.6-1.6-8.3-8.2-16.7-11.1-4.9-1.8-8.8-2.4-15.1-2.4-12.7 0-22.3 3.2-31.3 10.3l-3.8 2.9-6.8-6.6c-6.7-6.4-8.1-7.4-8.1-5.9m86.9 19.8c8.5 11.4 11.4 28.4 7.2 42.3-1.9 6.4-9.4 19.4-10.9 19.1-.4-.1-6.7-6.4-14.1-14-12.2-12.6-13.3-14-12.4-16.1q1.05-2.25 0-5.1c-.9-2.7-.4-3.5 12.4-16.6 7.4-7.6 13.6-13.9 13.9-13.9.3-.1 2 1.9 3.9 4.3M511.8 763.7l-3.8.4V898h160.6l8.4-7.8c4.7-4.2 13-11.6 18.5-16.3 14-12 22.1-20.2 28.2-28.4 8.7-11.6 9.1-15.9 2.4-26.1-6.6-10.2-16.3-19.7-46.4-45.7-13.2-11.3-3.6-10.2-89.2-10.3-41.2-.1-76.7.1-78.7.3m150 2c6.7.7 9.2 2.5 28.3 19.5 31.2 27.8 41.1 40.3 38.5 48.6-1.3 3.9-8.4 13.9-14.7 20.6-3.5 3.8-12.4 12-19.9 18.4-7.4 6.4-16.3 14.2-19.7 17.4l-6.1 5.8H510V766.1l7.3-.3c14.5-.6 139.3-.7 144.5-.1"/><path d="M540 782.7c0 .4 9.5 10.3 21 21.8 11.6 11.5 21 21.3 21 21.7 0 .3-.7 1.4-1.6 2.2-1.3 1.3-4.6 1.6-21 1.6-12 0-19.4.4-19.4 1s7.8 1.1 20.1 1.2c17.9.3 20.3.5 21.3 2 .9 1.5-2 4.8-20.4 23.3-11.8 11.8-21.2 21.6-20.9 21.9s9.5-8.5 20.4-19.4c11-11 21.1-20.5 22.4-21.2 2-1.1 2.5-1 3.8.7 1.2 1.6 1.4 5 1.2 17-.3 20.4-.1 24.1 1.1 22.9.5-.5 1.1-9.6 1.2-20.9.3-18.7.4-20 2.2-20.3 1.4-.3 7.7 5.4 22.7 20.4 11.5 11.4 21.1 20.6 21.4 20.3.3-.4-8.7-9.9-20-21.3-16-16.1-20.6-21.2-20.3-22.9.3-2.2.6-2.2 20.6-2.5 12.3-.1 20.2-.6 20.2-1.2s-7.4-1-19.4-1c-16.4 0-19.7-.3-21-1.6-.9-.8-1.6-1.8-1.6-2.2 0-.3 9.5-10.2 21.2-21.9S637 783 636.5 783c-.6 0-10.2 9.2-21.5 20.5-14.8 14.9-21.1 20.5-22.5 20.3-1.9-.3-2-1.2-2.3-20.3-.1-11.3-.7-20.4-1.2-20.9-.7-.7-1 6-1 19.1 0 16.8-.2 20.3-1.5 21.3-2.6 2.1-5.3-.1-25.4-20.5-18.8-19.2-21.1-21.3-21.1-19.8M750.6 763.8c-.4.3-.6 30.6-.6 67.4V898h158.8l4.9-3.6c2.6-2 7.7-6.4 11.3-9.8 3.6-3.3 11.6-10.6 17.8-16.1 13.2-11.6 24.3-23.9 27.3-30.2 4.2-8.8.5-18.2-12.6-31.7-7.6-7.8-35.7-32.8-43.5-38.7l-4.8-3.6-35.3-.7c-39.5-.8-122.5-.7-123.3.2m160.1 3.7c4.2 2.7 40.6 35 46.4 41.2 7.2 7.7 12.1 15.6 12.6 20.7.7 5.9-2.7 12.2-12.5 22.7-8.2 8.8-39.5 37.1-45.6 41.3l-3.9 2.6H752V766.1l7.3-.4c3.9-.2 38.9-.3 77.7-.3 68.8.1 70.6.2 73.7 2.1"/><path d="m802.3 781.8-22.3.2v98h99.5l-.2-48.7c-.1-26.8-.6-48.8-1-49-1.8-.4-55.4-.8-76-.5m3.8 5.9c-7.8 4.7-17 14.3-20.6 21.7-1.5 3.1-2.9 5.6-3.1 5.6s-.4-7-.4-15.5V784h30.5zm42.4-.4c8.9 4.1 13.2 7.4 18.1 13.9 7.9 10.2 9.7 15.5 10.2 29.3l.4 12-4.2 8.2c-5 9.9-12.8 17.7-23.3 23-7.1 3.6-7.4 3.7-19.7 3.7-12.5.1-12.5.1-20.2-3.7-10.4-5-17.3-11.9-22.4-22.2l-3.9-7.9v-25.3l4.4-8.8c3.6-7 5.7-9.7 10.4-13.6 11.4-9.5 18.2-11.9 33.2-11.6 9.7.2 11.7.5 17 3m28.5 12.4v15.6l-3-6c-4.2-8.4-13.1-17.6-21-21.8l-6.5-3.5H877zM795.9 866c3.6 3.6 8.9 7.6 11.6 9l5 2.5-14.9.3c-8.2.1-15.1.1-15.3-.2-.3-.2-.1-7.1.3-15.2l.7-14.8 3 6c1.7 3.4 5.7 8.6 9.6 12.4m81.1-3v15h-30.5l6.4-3.7c8.3-4.6 17.9-14.3 21-21.1 1.4-2.8 2.6-5.2 2.8-5.2s.3 6.7.3 15"/><path d="M825.1 824.6c-4 3.3-4.3 8.3-.6 11.9 6.4 6.5 16.8-1.4 12.5-9.6-1-1.8-5.9-4.9-7.9-4.9-.5 0-2.3 1.2-4 2.6"/></g></svg>